HIERARCHY
ROOT Hips
{
	OFFSET 0.00000 0.00000 0.00000
	CHANNELS 6 Xposition Yposition Zposition Zrotation Yrotation Xrotation 
	JOINT LHipJoint
	{
		OFFSET 0 0 0
		CHANNELS 3 Zrotation Yrotation Xrotation
		JOINT LeftHip
		{
			OFFSET 1.61328 -1.70571 0.84375
			CHANNELS 3 Zrotation Yrotation Xrotation
			JOINT LeftKnee
			{
				OFFSET 2.32400 -6.38513 0.00000
				CHANNELS 3 Zrotation Yrotation Xrotation
				JOINT LeftAnkle
				{
					OFFSET 2.58843 -7.11166 0.00000
					CHANNELS 3 Zrotation Yrotation Xrotation
					JOINT LeftToe
					{
						OFFSET 0.17200 -0.47257 2.47970
						CHANNELS 3 Zrotation Yrotation Xrotation
						End Site
						{
							OFFSET 0.00000 -0.00000 1.26912
						}
					}
				}
			}
		}
	}
	JOINT RHipJoint
	{
		OFFSET 0 0 0
		CHANNELS 3 Zrotation Yrotation Xrotation
		JOINT RightHip
		{
			OFFSET -1.49930 -1.70570 0.84375
			CHANNELS 3 Zrotation Yrotation Xrotation
			JOINT RightKnee
			{
				OFFSET -2.30458 -6.33178 0.00000
				CHANNELS 3 Zrotation Yrotation Xrotation
				JOINT RightAnkle
				{
					OFFSET -2.62261 -7.20556 0.00000
					CHANNELS 3 Zrotation Yrotation Xrotation
					JOINT RightToe
					{
						OFFSET -0.18709 -0.51403 2.51340
						CHANNELS 3 Zrotation Yrotation Xrotation
						End Site
						{
							OFFSET -0.00000 -0.00000 1.28858
						}
					}
				}
			}
		}
	}
	JOINT lowerback
	{
		OFFSET 0 0 0
		CHANNELS 3 Zrotation Yrotation Xrotation
		JOINT Chest
		{
			OFFSET -0.03798 2.19274 -0.19881
			CHANNELS 3 Zrotation Yrotation Xrotation
			JOINT Chest2
			{
				OFFSET -0.00024 2.19460 0.05248
				CHANNELS 3 Zrotation Yrotation Xrotation
				JOINT lowerneck
				{
					OFFSET 0 0 0
					CHANNELS 3 Zrotation Yrotation Xrotation
					JOINT Neck
					{
						OFFSET -0.00746 1.82323 0.17286
						CHANNELS 3 Zrotation Yrotation Xrotation
						JOINT Head
						{
							OFFSET 0.11826 1.82121 -0.27841
							CHANNELS 3 Zrotation Yrotation Xrotation
							End Site
							{
								OFFSET 0.03496 1.85543 -0.11495
							}
						}
					}
				}
				JOINT LeftCollar
				{
					OFFSET 0 0 0
					CHANNELS 3 Zrotation Yrotation Xrotation
					JOINT LeftShoulder
					{
						OFFSET 3.71926 0.78840 0.25473
CHANNELS 3 Zrotation Xrotation Yrotation
						JOINT LeftElbow
						{
OFFSET 0 -5.375870 0.000000
CHANNELS 3 Zrotation Xrotation Yrotation
							JOINT LeftWrist
							{
OFFSET 0 -3.359770 0.000000
CHANNELS 3 Zrotation Xrotation Yrotation
								JOINT lhand
								{
									OFFSET 0 0 0
CHANNELS 3 Zrotation Xrotation Yrotation
									JOINT LFingers
									{
OFFSET 0 -0.561860 0.000000
CHANNELS 3 Zrotation Xrotation Yrotation
										End Site
										{
OFFSET 0 -0.452990 0.000000
										}
									}
								}
								JOINT LThumb
								{
OFFSET 0 0.000000 0.000000
CHANNELS 3 Zrotation Xrotation Yrotation
									End Site
									{
OFFSET 0 -0.459900 0.459900
									}
								}
							}
						}
					}
				}
				JOINT RightCollar
				{
					OFFSET 0 0 0
					CHANNELS 3 Zrotation Yrotation Xrotation
					JOINT RightShoulder
					{
						OFFSET -3.65136 0.56074 0.01624
CHANNELS 3 Zrotation Xrotation Yrotation
						JOINT RightElbow
						{
OFFSET 0 -5.228190 0.000000
CHANNELS 3 Zrotation Xrotation Yrotation
							JOINT RightWrist
							{
OFFSET 0 -3.407640 0.000000
CHANNELS 3 Zrotation Xrotation Yrotation
								JOINT rhand
								{
									OFFSET 0 0 0
CHANNELS 3 Zrotation Xrotation Yrotation
									JOINT RFingers
									{
OFFSET 0 -0.583250 0.000000
CHANNELS 3 Zrotation Xrotation Yrotation
										End Site
										{
OFFSET 0 -0.470240 0.000000
										}
									}
								}
								JOINT RThumb
								{
OFFSET 0 0.000000 0.000000
CHANNELS 3 Zrotation Xrotation Yrotation
									End Site
									{
OFFSET 0 -0.477420 0.477420
									}
								}
							}
						}
					}
				}
			}
		}
	}
}
MOTION
Frames: 4
Frame Time: 0.008333333333333333
49.722042 16.283301 -6.222212 533.109699 -104.635765 1272.926828 0.000000 0.000000 0.000000 -18.750597 -6.118562 -12.372085 3.309712 11.180224 32.890243 1.681057 -0.203994 -24.477094 1.092495 -6.642308 -18.659902 0.000000 0.000000 0.000000 21.350185 11.000021 -21.013448 -5.477696 -13.902276 42.847494 -2.691726 0.601367 -30.928217 -0.120666 -2.233698 6.152272 -0.879772 -0.128457 2.155089 -0.122673 -0.207188 2.688751 0.368454 -0.130163 1.549392 -7.123475 -7.485136 -3.077836 16.856806 -8.989890 -13.166370 6.340894 -4.961107 -2.167376 0.000000 0.000000 0.000000 13.483497 3.390069 -31.659478 35.558703 -45.206724 15.208562 18.263170 -15.599054 -17.730889 0.000000 0.000000 0.000000 -7.125000 0.000000 0.000000 -9.455681 48.357918 0.789598 0.000000 0.000000 0.000000 -4.734699 10.268196 35.823947 -28.735936 -39.784479 -10.591515 -27.481538 -20.172312 -7.785557 0.000000 0.000000 0.000000 7.125000 0.000000 0.000000 -0.470325 21.218485 -0.268469
49.787258 16.212292 -6.124193 533.898836 -102.359466 1271.822705 0.000000 0.000000 0.000000 -19.994534 -5.571518 -12.618534 3.525610 11.500791 33.988248 1.719027 1.148602 -25.227194 0.928984 -6.139894 -17.190776 0.000000 0.000000 0.000000 20.207298 11.912244 -21.690963 -5.901371 -14.331919 44.584208 -2.708272 1.677787 -30.728731 -0.031907 -1.151761 3.166431 -1.195449 0.251970 2.942303 -0.133315 0.276890 2.982598 0.528129 0.101472 1.403161 -6.554874 -7.073741 -3.717640 16.393842 -8.397141 -14.047486 6.132752 -4.698587 -2.446935 0.000000 0.000000 0.000000 10.179171 3.086230 -31.592262 36.221442 -45.664850 15.680638 16.774716 -15.899472 -17.510807 0.000000 0.000000 0.000000 -7.125000 0.000000 0.000000 -10.793451 47.920298 0.786157 0.000000 0.000000 0.000000 -3.304696 9.637166 35.180675 -27.447755 -38.602843 -9.777245 -28.994289 -20.668752 -8.313559 0.000000 0.000000 0.000000 7.125000 0.000000 0.000000 -1.528126 20.496772 -0.896657
49.821078 16.127435 -6.025063 535.847267 -100.003168 1269.676561 0.000000 0.000000 0.000000 -21.257821 -4.377698 -13.066024 3.728564 11.790052 34.993469 1.781305 1.753394 -25.908275 0.801423 -5.713680 -15.955847 0.000000 0.000000 0.000000 18.869593 12.853893 -22.784277 -6.479020 -14.876638 46.874552 -2.641353 2.725741 -30.082077 -0.008041 -0.579438 1.592354 -1.883363 0.537840 3.513943 -0.223967 0.626157 3.171942 0.810492 0.260580 1.266697 -5.860735 -6.614510 -4.448414 15.859421 -7.815374 -14.140683 5.844724 -4.411344 -2.483590 0.000000 0.000000 0.000000 6.857880 3.033152 -32.332464 35.474745 -45.147957 15.148974 16.418034 -14.460167 -17.300154 0.000000 0.000000 0.000000 -7.125000 0.000000 0.000000 -11.063231 47.657268 0.733872 0.000000 0.000000 0.000000 -2.303399 8.967352 35.132856 -27.109859 -38.283727 -9.567111 -30.063325 -19.990637 -8.515392 0.000000 0.000000 0.000000 7.125000 0.000000 0.000000 -2.279164 20.168556 -1.354720
49.822170 16.031057 -5.933293 539.419167 -98.371197 1265.881085 0.000000 0.000000 0.000000 -22.348918 -2.898552 -13.840603 4.005472 12.167622 36.327677 1.868481 1.458287 -26.402502 0.753129 -5.542886 -15.463844 0.000000 0.000000 0.000000 17.584974 13.352165 -23.964660 -7.122312 -15.433996 49.335415 -2.518685 3.340650 -29.216780 -0.021074 -0.935238 2.570742 -2.511496 0.461840 3.915922 -0.482673 0.493179 3.340322 0.897834 0.180660 1.217403 -5.187580 -6.057044 -4.988046 15.459703 -7.128056 -13.894817 5.598544 -4.068953 -2.447105 0.000000 0.000000 0.000000 4.348039 3.201880 -33.959079 34.703161 -44.599016 14.604588 17.138967 -13.712428 -18.010569 0.000000 0.000000 0.000000 -7.125000 0.000000 0.000000 -10.604688 48.479072 0.919564 0.000000 0.000000 0.000000 -1.581739 8.573081 35.765613 -27.864394 -38.991022 -10.038252 -31.335709 -20.527383 -8.519143 0.000000 0.000000 0.000000 7.125000 0.000000 0.000000 -3.187380 20.040348 -1.905030
